<svg xmlns="http://www.w3.org/2000/svg" viewBox="0 0 1365.14 932.43"><defs><style>.cls-1{fill:none;stroke:#000;stroke-miterlimit:10;stroke-width:7px;}</style></defs><title>ian</title><g id="Capa_2" data-name="Capa 2"><g id="Capa_1-2" data-name="Capa 1"><path class="cls-1" d="M12.09,185.47s90-132,287-76-185,102-89-45,283,6,215,101-489,374-341,668,141-199-40-49,292,112,462-150,318,155,114,162-121-300,54-292-127,52,4-33-161,363,77,313,117-313,92-312-22,93,63,25-17,253,95,293,121-134,55-142,58,230,302-204"/></g></g></svg>