<svg xmlns="http://www.w3.org/2000/svg" viewBox="0 0 522 522"><title>Vivus1</title><g id="Capa_2" data-name="Capa 2"><g id="Capa_1-2" data-name="Capa 1"><path d="M455.24,14A53,53,0,0,1,508,66.76V455.24A53,53,0,0,1,455.24,508H66.76A53,53,0,0,1,14,455.24V66.76A53,53,0,0,1,66.76,14H455.24m0-14H66.76A67,67,0,0,0,0,66.76V455.24A67,67,0,0,0,66.76,522H455.24A67,67,0,0,0,522,455.24V66.76A67,67,0,0,0,455.24,0Z"/><path d="M261,15.51a55.58,55.58,0,0,1,39.59,16.31L490.18,221.41a56.2,56.2,0,0,1,0,79.18L300.59,490.18a56.2,56.2,0,0,1-79.18,0L31.82,300.59a56.2,56.2,0,0,1,0-79.18L221.41,31.82A55.58,55.58,0,0,1,261,15.51m0-10.78a66.58,66.58,0,0,0-47.21,19.48L24.21,213.79a67,67,0,0,0,0,94.42L213.79,497.79a66.95,66.95,0,0,0,94.42,0L497.79,308.21a67,67,0,0,0,0-94.42L308.21,24.21A66.58,66.58,0,0,0,261,4.73Z"/><path d="M385.24,80.25a56.71,56.71,0,0,1,56.51,56.51V385.24a56.71,56.71,0,0,1-56.51,56.51H136.76a56.71,56.71,0,0,1-56.51-56.51V136.76a56.71,56.71,0,0,1,56.51-56.51H385.24m0-10.25H136.76A67,67,0,0,0,70,136.76V385.24A67,67,0,0,0,136.76,452H385.24A67,67,0,0,0,452,385.24V136.76A67,67,0,0,0,385.24,70Z"/><path d="M350.78,113.89a58.59,58.59,0,0,1,58.39,58.4V350.77a58.59,58.59,0,0,1-58.39,58.39H172.3a58.59,58.59,0,0,1-58.4-58.39V172.29a58.59,58.59,0,0,1,58.4-58.4H350.78m0-8.36H172.3a67,67,0,0,0-66.77,66.76V350.77a67,67,0,0,0,66.77,66.76H350.78a67,67,0,0,0,66.76-66.76V172.29a67,67,0,0,0-66.76-66.76Z"/><path d="M261.54,87.39a58.38,58.38,0,0,1,41.58,17.14L418.53,220a59,59,0,0,1,0,83.16L303.12,418.53a59,59,0,0,1-83.16,0L104.54,303.11a59,59,0,0,1,0-83.16L220,104.53a58.34,58.34,0,0,1,41.58-17.14m0-8A66.55,66.55,0,0,0,214.33,98.9L98.91,214.32a67,67,0,0,0,0,94.42L214.33,424.15a66.93,66.93,0,0,0,94.41,0L424.16,308.74a67,67,0,0,0,0-94.42L308.74,98.9a66.55,66.55,0,0,0-47.2-19.47Z"/><path d="M317.92,144.89a60.4,60.4,0,0,1,60.19,60.19V316.92a60.4,60.4,0,0,1-60.19,60.19H206.08a60.4,60.4,0,0,1-60.19-60.19V205.08a60.4,60.4,0,0,1,60.19-60.19H317.92m0-6.58H206.08a67,67,0,0,0-66.77,66.77V316.92a67,67,0,0,0,66.77,66.77H317.92a67,67,0,0,0,66.77-66.77V205.08a67,67,0,0,0-66.77-66.77Z"/><path d="M262,130a60.08,60.08,0,0,1,42.78,17.64l70.61,70.61a60.69,60.69,0,0,1,0,85.56l-70.61,70.61a60.69,60.69,0,0,1-85.56,0l-70.61-70.61a60.69,60.69,0,0,1,0-85.56l70.61-70.61A60.08,60.08,0,0,1,262,130m0-6.26a66.54,66.54,0,0,0-47.21,19.48l-70.6,70.6a67,67,0,0,0,0,94.42l70.6,70.6a66.95,66.95,0,0,0,94.42,0l70.6-70.6a67,67,0,0,0,0-94.42l-70.6-70.6A66.54,66.54,0,0,0,262,123.71Z"/><path d="M262,159.52a61.25,61.25,0,0,1,43.6,18L346,217.87a61.83,61.83,0,0,1,0,87.18L305.6,345.42a61.84,61.84,0,0,1-87.19,0L178,305.05a61.85,61.85,0,0,1,0-87.18l40.37-40.37a61.21,61.21,0,0,1,43.59-18m0-5.11a66.55,66.55,0,0,0-47.2,19.47l-40.37,40.37a67,67,0,0,0,0,94.42L214.8,349a67,67,0,0,0,94.41,0l40.37-40.37a67,67,0,0,0,0-94.42l-40.37-40.37A66.55,66.55,0,0,0,262,154.41Z"/><path d="M285.89,175.67a62.11,62.11,0,0,1,61.9,61.9v47.77a62.09,62.09,0,0,1-61.9,61.9H238.12a62.09,62.09,0,0,1-61.9-61.9V237.57a62.11,62.11,0,0,1,61.9-61.9h47.77m0-4.86H238.12a67,67,0,0,0-66.76,66.76v47.77a67,67,0,0,0,66.76,66.77h47.77a67,67,0,0,0,66.76-66.77V237.57a67,67,0,0,0-66.76-66.76Z"/></g></g></svg>