<svg xmlns="http://www.w3.org/2000/svg" viewBox="0 0 892.83 114.28"><defs><style>.cls-1{fill:#108add;}</style></defs><title>wolfgang</title><g id="Capa_2" data-name="Capa 2"><g id="Capa_1-2" data-name="Capa 1"><path class="cls-1" d="M8.55,102Q7.82,100.42,7.08,99c-.5-1-1-1.87-1.48-2.66Q3.83,92.75,2.51,90A52.63,52.63,0,0,1,0,83.46q.43-2.5,1.55-8.4T4.13,62.15q1.47-7,3.17-14.23t3.46-12.38Q12.4,31,14.38,25.81a74.19,74.19,0,0,1,4.42-9.52A40.51,40.51,0,0,1,24,8.85a10.81,10.81,0,0,1,6-3.69A7.37,7.37,0,0,0,32,7a8.17,8.17,0,0,0,1.92,1,51.58,51.58,0,0,0,4.86,6,42.42,42.42,0,0,0,5.61,4.79,97,97,0,0,1-2.58,9.8q-1.71,5.38-3.54,10.84T34.65,49.92q-1.77,5.09-2.8,8.77-.88,3-1.77,6.78c-.49,2.17-1,4.77-1.55,7.82s-1.05,6.39-1.54,10A16.78,16.78,0,0,0,31.63,81a52.61,52.61,0,0,0,4.79-3.69q2.65-2.22,5.16-4.72,3.39-3.39,5.75-6.19a61,61,0,0,0,4.36-5.83c1.32-2,2.7-4.22,4.12-6.63s3.12-5.29,5.09-8.63q2.66-4.27,5.53-9.14t5.83-9.29Q75.2,22.42,78,18.65a37.53,37.53,0,0,1,5.16-5.82q1.62,1.62,3.76,3.39a12.91,12.91,0,0,0,4.64,2.51c.69,1.08,1.35,2,2,2.87s1.26,1.65,1.85,2.44L97.55,27a17.37,17.37,0,0,1,1.69,2.94c-.1.79-.27,1.82-.51,3.1s-.52,2.68-.82,4.2-.61,3.08-1,4.65-.67,3.1-1,4.57q-1.48,6.63-2.21,10c-.5,2.26-.84,4-1,5.31s-.32,2.36-.37,3.24-.07,2.12-.07,3.69a21.15,21.15,0,0,0,.3,3.54c.19,1.08.41,2.18.66,3.31a8.49,8.49,0,0,0,1.4,3.17l7.08-5.45A25.91,25.91,0,0,0,107.43,67a81.12,81.12,0,0,0,5.3-9.29q2.58-5.23,5.09-11.35t5-12.61q1.77-4.73,3.62-9.37t3.76-8.84c1.27-2.8,2.53-5.36,3.76-7.67a45.69,45.69,0,0,1,3.61-5.83,56.08,56.08,0,0,1,6.86,5,31.14,31.14,0,0,1,5,5.53,25,25,0,0,1,3.39,6.93,47.77,47.77,0,0,1,1.85,9.21q-3.25,6.2-6.05,12.69T143,54.56q-3.54,8.55-7.3,17a152.33,152.33,0,0,1-8.33,16.15,93.41,93.41,0,0,1-10.25,14.08,55.5,55.5,0,0,1-13,10.84,17.69,17.69,0,0,0-3.54-.44,6.8,6.8,0,0,0-4.72,1.62,23.21,23.21,0,0,1-9.73-8.33A134,134,0,0,1,78.89,93.2c-.29-.69-.61-1.35-1-2s-.71-1.3-1.1-2l-2.51-4.57-1.47-2.8-2.07,1.92-3.1,2.8-1.76,1.77q-4.58,4.28-9.29,8.33A88.31,88.31,0,0,1,46.75,104a53.11,53.11,0,0,1-11,5.39,40,40,0,0,1-12.46,2.21c-.79-.39-1.5-.74-2.14-1s-1.25-.59-1.84-.89a44.87,44.87,0,0,1-5.61-3.1A32.32,32.32,0,0,1,8.55,102Z"/><path class="cls-1" d="M182.7,113.1a29.15,29.15,0,0,1-11.79-.59,28.72,28.72,0,0,1-9.51-4.57,31.81,31.81,0,0,1-7.23-7.37,43.17,43.17,0,0,1-4.94-9.14A48.35,48.35,0,0,1,150,73.21a59.25,59.25,0,0,1,6-15.11,90,90,0,0,1,9.07-13l9.81-11.65a1.68,1.68,0,0,0,1.69,0,4.14,4.14,0,0,0,1.18-1.18,16.88,16.88,0,0,1,1.18-1.47,3.68,3.68,0,0,1,1.55-1A6.51,6.51,0,0,1,182,27.58a24.82,24.82,0,0,1,2.06-1.7,23.44,23.44,0,0,0,2.07-1.7,8.86,8.86,0,0,0,1.7-2.21,7.06,7.06,0,0,0,2.58-1,17.08,17.08,0,0,0,2.06-1.62,20.13,20.13,0,0,1,2-1.62A8.11,8.11,0,0,1,197,16.52V14.6a13.21,13.21,0,0,0,4.72-3.25q1.47-1.77,3.54-4.57c1.08-.09,1.94-.14,2.58-.14a23.73,23.73,0,0,0,3-.3,15.6,15.6,0,0,1,2.51-3.69A22.3,22.3,0,0,1,216.77,0a12.13,12.13,0,0,0,4.72,1.4,7.3,7.3,0,0,1,4.57,2.29,4.35,4.35,0,0,0,1,2.72A14.6,14.6,0,0,0,229,8.18c.68.55,1.37,1.11,2.06,1.7a4.17,4.17,0,0,1,1.33,2.51,1.17,1.17,0,0,0,1-.3q.21-.29,1-.15a13.63,13.63,0,0,0,.59,1.92,7.49,7.49,0,0,0,.66,1.33c.24.39.49.83.74,1.33a11,11,0,0,1,.66,1.77,35.92,35.92,0,0,0-1.33,3.76,4,4,0,0,1-2.36,2.72c0,.79.3,1.21.89,1.26s.93.42,1,1.1a3.23,3.23,0,0,1-.44,2.21,141.11,141.11,0,0,1,7.52,14.53A122.26,122.26,0,0,0,250,58.39a10.09,10.09,0,0,0,.22,4.06,27.66,27.66,0,0,0,1.32,3.91c.54,1.28,1.06,2.56,1.55,3.83a18.9,18.9,0,0,1,1,3.84,25.43,25.43,0,0,1,0,5.38,26,26,0,0,1-1.18,5.53,22,22,0,0,1-2.36,4.94,10.92,10.92,0,0,1-3.4,3.46,18.14,18.14,0,0,1-5.89,4.8,34.22,34.22,0,0,0-6.49,4.35,15.62,15.62,0,0,1-4.43,1.69l-4.86,1.11a31.85,31.85,0,0,1-4.57,2.28q-2.66,1.11-5.46,2a46.3,46.3,0,0,1-5.6,1.4,16.18,16.18,0,0,1-5,.23,53.71,53.71,0,0,1-10.32,2.65A33.49,33.49,0,0,1,182.7,113.1Zm1.92-53.67a32.22,32.22,0,0,1-3.46,6.12c-1.33,1.82-2.64,3.66-3.91,5.53a36.47,36.47,0,0,0-3.32,6,20,20,0,0,0-1.55,7.45,13.18,13.18,0,0,0,7,3,39.82,39.82,0,0,0,8.33.15q4.28-.37,8.55-1.11a45.82,45.82,0,0,1,7.67-.74c0-.88.39-1.32,1.18-1.32A29.89,29.89,0,0,0,216.62,81q5.31-2.88,11.06-5.82a10.8,10.8,0,0,1,1.92-3.1,6.22,6.22,0,0,0,1.32-3.84,9.21,9.21,0,0,1-.95-2.21,11.5,11.5,0,0,1-.23-2.65,64.9,64.9,0,0,1-6.63-11.58A84.4,84.4,0,0,0,216.62,40a3.86,3.86,0,0,1-1.18,1.48q-.88.73-1.92-.3a3.19,3.19,0,0,1-1.32,2,3.84,3.84,0,0,1-2,.52,6.05,6.05,0,0,1-2.22-.44A7.64,7.64,0,0,1,206,42q-5.16,4.13-10.25,8a51.48,51.48,0,0,0-9.21,9c-.5.3-.79.4-.89.3S185.21,59.23,184.62,59.43Z"/><path class="cls-1" d="M267.94,107.06a6,6,0,0,1-1-1.4,8.3,8.3,0,0,1-.73-2.14,19.4,19.4,0,0,1-3.25-5.75,31.15,31.15,0,0,1-1.62-6.71,34.16,34.16,0,0,1-.15-7,43.82,43.82,0,0,1,1-6.63,30.6,30.6,0,0,0,.73-3.1q.74-2.8,1.48-5.53a11.71,11.71,0,0,1,2.21-4.5,4.91,4.91,0,0,1,.15-3.54q.74-1.91,1.47-3.54a4.11,4.11,0,0,0,.44-.81q.15-.36.3-.66,1.77-5.16,3.46-10t3.32-9.22q3-8.1,5.68-15.93T286.37,4a7.65,7.65,0,0,1,2.06-1.18c.2-.09.45-.19.74-.29a3.24,3.24,0,0,1,1-.15,49.72,49.72,0,0,0,7.3,3,23.15,23.15,0,0,0,7.15,1.4L307.16,9a29.89,29.89,0,0,1,3.32,4.64,9.52,9.52,0,0,1,.81,6.27,5,5,0,0,1-1.47,1.62,52.1,52.1,0,0,1-1.92,6q-1,2.58-2.07,4.94-1.17,2.66-2.21,5.31a37.47,37.47,0,0,0-1.77,6.49,5.17,5.17,0,0,0-1.1,1.77c-.15.49-.32,1-.52,1.47a17.81,17.81,0,0,1-.74,1.85A4.72,4.72,0,0,1,298.17,51a30.8,30.8,0,0,1-1.77,7.45q-1.18,2.88-2.36,5.68Q292,69.31,290.2,74.39A40.72,40.72,0,0,0,288.14,86a13.19,13.19,0,0,1,3.24-.44,11.69,11.69,0,0,1,3.69.59,32.59,32.59,0,0,1,11.58-3.25q6.25-.59,12.46-.73a95,95,0,0,0,9.58-.45,7,7,0,0,0,1.92,1.11,10.05,10.05,0,0,0,1.47.07H333a6.37,6.37,0,0,1,1.18.15,12.84,12.84,0,0,0,4,2.88c1.27.54,2.65,1,4.13,1.54,1.27.5,2.53,1,3.76,1.55a18.51,18.51,0,0,1,3.61,2.14L351,98.65c.78,1.08,1.13,1.82,1,2.21a3.67,3.67,0,0,1-.59,2.07l.29,1.91A10.73,10.73,0,0,0,348,106.1a19,19,0,0,0-1.92,1.69c-1.08.1-2.11.15-3.1.15a21.93,21.93,0,0,0-6,.89,28.14,28.14,0,0,0-9.73-1.63c-1.38,0-2.78,0-4.21.15s-2.82.25-4.2.44-2.95.37-4.42.52a43.8,43.8,0,0,1-4.43.22l-2.5.44a8.11,8.11,0,0,0-1.48.45q-5,1.62-10.84,3.24a43.54,43.54,0,0,1-11.72,1.62q-8.7,0-14-4.42a14,14,0,0,0-.88-1.77A8.78,8.78,0,0,1,267.94,107.06Z"/><path class="cls-1" d="M361.57,82.58a16.84,16.84,0,0,1-6.78-7.08,22.53,22.53,0,0,1-2.65-8.7A11.09,11.09,0,0,1,357.3,58a16,16,0,0,1,4-1.92c1.37-.44,2.7-.81,4-1.11l2.21.74A12.84,12.84,0,0,0,369,57.07c.54.39,1.06.79,1.55,1.18a2.85,2.85,0,0,0,1.84-1.77c.25-.79.52-1.57.81-2.36.3-1.08.64-2.16,1-3.25a23.19,23.19,0,0,1,1.47-3.24,6,6,0,0,1,.15-2.36,15.88,15.88,0,0,1,.59-1.77,3.78,3.78,0,0,0-1.26-.81,12.14,12.14,0,0,1-1.25-.37,5.22,5.22,0,0,1-.88-.07c-.3,0-.64-.12-1-.22a11,11,0,0,1-2.87-2.73c-.44-.74-.91-1.5-1.4-2.29s-.94-1.47-1.33-2.06a10.43,10.43,0,0,0-1.33-1.62l-1.77-1.18.89-1.77a1.13,1.13,0,0,0,.29-.81,3.52,3.52,0,0,0-.59-1.55,5.64,5.64,0,0,1-.14-2.8l.29-1.77q1.47-1.92,1.62-2.22l1.48-1.47q3.39-.89,6.93-2T381,15.48q3.39-1.17,6.93-2.36t7.08-2.06a5,5,0,0,1,2.58-1.25c.93-.15,1.79-.27,2.58-.37a11.51,11.51,0,0,0,1.92-.15,1.94,1.94,0,0,0,1.32-.74c1.67-.59,3.3-1.08,4.87-1.47Q412.75,5.9,420,4.28a118.43,118.43,0,0,1,16.22-2.36l3.1-.15a7,7,0,0,0,1.77.07c.59-.05,1.18-.07,1.77-.07q7.67,0,10.17,4.72a10.92,10.92,0,0,1,2.65,1.84c.79.74,1.53,1.45,2.22,2.14.49.49.93.91,1.32,1.25a8.1,8.1,0,0,0,1,.81l1.18,1.18a9.56,9.56,0,0,1,.59,6.93,3.66,3.66,0,0,1-1.92,2.07L458,23.3l-1.91,1q-1.92-.15-2.88-.15h-2.14c-2.95,0-6.36.18-10.25.52S433,25.54,429,26.17s-8,1.43-11.79,2.36a86.78,86.78,0,0,0-10,3,12.89,12.89,0,0,1-3.1,1.62,6.39,6.39,0,0,0-1.32.74,9.66,9.66,0,0,1,0,2.28,14.76,14.76,0,0,1-.45,2.14,14.46,14.46,0,0,0-.22,1.55c-.05.54-.12,1.1-.22,1.69a12.52,12.52,0,0,0-2.95,8.7l-.74,1.48a4.24,4.24,0,0,0-.95,1.69,4,4,0,0,0-.08,2.29l.59,1.77q3-.3,5.83-.66l6.12-.81c2.75-.5,5.53-.91,8.33-1.26a72.72,72.72,0,0,1,8.77-.51h5.75l-1.32,1.32,1.62.15-.89,2.36,1.55.66a5.87,5.87,0,0,1,1,.52l1,1.47a4.18,4.18,0,0,1,1.33,1.4,6.07,6.07,0,0,1,.74,2.59l-.45,1.47-6.93,8.85-.88,1.18-1.48-.45a16,16,0,0,0-5.3.59c-.79.2-1.63.42-2.51.67a10.16,10.16,0,0,1-2.66.37l-5.89,1c-1.58.24-3.15.46-4.72.66l-6.27,1.11a29.4,29.4,0,0,0-5.68,1.54,9.51,9.51,0,0,1-1.91.08,2.46,2.46,0,0,0-.59-.08,10,10,0,0,0-2.95.45c-1,.29-1.92.59-2.8.88a3.67,3.67,0,0,0-1.18,1.55c-.2.54-.4,1.1-.59,1.69a9.9,9.9,0,0,1-.82,2,18.32,18.32,0,0,1-1.25,2l.15,2.65a5.18,5.18,0,0,0-1.33.37s-.05.07-.15.07a6.61,6.61,0,0,1-.36,2.21c-.25.69-.47,1.33-.67,1.92a8.51,8.51,0,0,0-.44,1,2.77,2.77,0,0,0-.15.89,8.4,8.4,0,0,1,.74,6,12.15,12.15,0,0,1-2.21,4.94,11.75,11.75,0,0,1-3.84,3.32,7.34,7.34,0,0,1-3.46-.15l-2.29-.88c-.49-.2-1-.37-1.47-.52s-1-.27-1.48-.36l-1.77-1.48a12.41,12.41,0,0,0-1-1.7c-.39-.53-.79-1.1-1.18-1.69l-1.47-2.07a12.54,12.54,0,0,1-1.33-2.35,23,23,0,0,1-.37-8.63A49.32,49.32,0,0,1,360.39,87c.2-.78.4-1.52.59-2.21S361.38,83.37,361.57,82.58Z"/><path class="cls-1" d="M439,77.56a9.36,9.36,0,0,1,.44-2.94,7.43,7.43,0,0,0,.15-3.4A121.65,121.65,0,0,1,450,53.16a68,68,0,0,1,13.93-14.67,10.82,10.82,0,0,0,2.14-2.14c.54-.74,1.08-1.45,1.62-2.14a10.74,10.74,0,0,1,1.85-1.84,5.94,5.94,0,0,1,2.65-1.11A45.87,45.87,0,0,1,481,23.45q5.16-3.54,10.76-6.79T503.06,10a70.35,70.35,0,0,0,10.25-7.38,3.05,3.05,0,0,0,2.58.67,3.08,3.08,0,0,1,2-.08,8.07,8.07,0,0,0,3.47,3.91c1.42.74,2.9,1.48,4.42,2.21A24.49,24.49,0,0,1,530.05,12a9.54,9.54,0,0,1,3,4.2c-.69,0-1,.25-1,.74a7.42,7.42,0,0,0,.37,1.62,5.09,5.09,0,0,1,.3,1.62c0,.5-.45.74-1.33.74a.91.91,0,0,0,1,1,.91.91,0,0,1,1,1,2.4,2.4,0,0,1-.36,1.4,2.08,2.08,0,0,0-.08,1.7,70.67,70.67,0,0,1-7.89,4.5L516,35.1q-4.8,2.35-9.73,5.08a93.82,93.82,0,0,0-9.81,6.27q-4.86,3.54-9.81,7.82t-9.51,9.06q-4.56,4.8-8.55,9.88a85.1,85.1,0,0,0-6.78,10,4.44,4.44,0,0,0,.81,1.33,4.69,4.69,0,0,1,.81,1.32,80.61,80.61,0,0,0,10.47-.07,34.34,34.34,0,0,1,9.73.66,1.88,1.88,0,0,0,.74-1.18,1.35,1.35,0,0,1,.88-1A122.85,122.85,0,0,0,504,80.88l17.7-4.64C520,75.55,518.37,75,517,74.62c-.59-.59-.57-1.11.07-1.55a7.39,7.39,0,0,0,1.55-1.4,11.85,11.85,0,0,1-3.91-3.54,11.52,11.52,0,0,1-1.84-5.75,2.65,2.65,0,0,0,1-2.07,2.27,2.27,0,0,0-1-1.92c-.49-.19-.79-.19-.89,0a3.89,3.89,0,0,0-.22.59,1.55,1.55,0,0,1-.29.59q-.23.3-.81,0a6.44,6.44,0,0,1,.73-2.65,8.21,8.21,0,0,0,.89-2.51l12.24-8.11a41.65,41.65,0,0,0,4.72,3.1q2.79,1.62,5.9,3.24c2.06,1.09,4.17,2.19,6.34,3.32s4.17,2.24,6,3.32a18.06,18.06,0,0,1,4.57,2.87q1.92,1.71,3.69,3.54t3.54,3.62a15,15,0,0,0,4.28,3,7.8,7.8,0,0,0,.29,3.83,7,7,0,0,1,.3,3.54,31.43,31.43,0,0,1-6.79,8.48,43.41,43.41,0,0,1-8.92,6,64.69,64.69,0,0,1-10.54,4.2q-5.61,1.69-11.5,3.25c-3.94,1-7.89,2.11-11.88,3.24s-7.88,2.43-11.72,3.91c-1.67,0-3.09,0-4.27.15s-2.32.24-3.4.44l-3.24.59a34.2,34.2,0,0,1-3.54.44q-.74-.15-1,.3a1.92,1.92,0,0,1-.66.73,35.62,35.62,0,0,1-5.31.45h-4a16.32,16.32,0,0,0-4.28.59,12.64,12.64,0,0,1-4.13.44q-13.26-.59-20.79-9.44T440,79c.1-.49,0-.81-.29-1A2.78,2.78,0,0,1,439,77.56Z"/><path class="cls-1" d="M554.31,98.5,556.22,97l.15-3.1q3.69-9,7.59-17.25t8.19-17q1.32-2.79,2.73-5.6t2.72-5.75a5.59,5.59,0,0,1-.14-1.26,4.84,4.84,0,0,1,.29-1.54,52.93,52.93,0,0,0,3.32-5.31c.83-1.57,1.64-3.2,2.43-4.87q1.34-2.94,2.88-5.9a32,32,0,0,1,3.91-5.75l1-1.47,1.62.14a10.87,10.87,0,0,1,1.25-.51,5.44,5.44,0,0,1,1.7-.22l2.65.44a25.84,25.84,0,0,0,8.63-6.42,81.37,81.37,0,0,0,7.59-10.1l1.77-2.5,2.36,1.47a10,10,0,0,0,2.36.89c1.08.29,2.21.64,3.39,1,2.07.49,4.08,1.06,6.05,1.69a11.27,11.27,0,0,1,4.57,2.58l.74,1.33c.19,1.08.37,2.07.52,2.95s.31,1.77.51,2.66c.39,2.06.74,4.1,1,6.11a63.75,63.75,0,0,1,.59,6.71q.74,3,1.4,6c.45,2,.86,4,1.26,6q.74,4.28,1.62,8.18a45.59,45.59,0,0,0,2.36,7.45,5.72,5.72,0,0,1,1.77.15,12.83,12.83,0,0,1,4.13-.89l1.91-.15.59,1.77a6.46,6.46,0,0,0,.74.89,10.46,10.46,0,0,0,1,.88,6.66,6.66,0,0,1,3.47,1,15.66,15.66,0,0,1,1.84,1.55,8.88,8.88,0,0,0,.74.66,3.79,3.79,0,0,0,.74.52l2.65,1-1.47,2.8a21.94,21.94,0,0,1-4.94,6A30.6,30.6,0,0,1,651,79.19a9.84,9.84,0,0,1,.37,1.91,13,13,0,0,0,.37,2.07c.39,2,.71,4,1,6.12a26.75,26.75,0,0,1-.08,6.56,36.05,36.05,0,0,1-3.46,6.86,27.81,27.81,0,0,1-4.72,5.45,24.32,24.32,0,0,1-6.12,4,18.57,18.57,0,0,1-7.08,1.7,10.28,10.28,0,0,1-3-1,16.67,16.67,0,0,1-1.7-1.18,9.21,9.21,0,0,0-1.92-1.18l-1.91-.89.59-2.21a2.3,2.3,0,0,0-.08-2.06,11.35,11.35,0,0,0-2.13-2.36,6.88,6.88,0,0,1-1-1c-.29-.34-.64-.71-1-1.11l-2.95-3.39L621,96.14c2.95-.78,4.91-1.79,5.9-3s1.37-3.41,1.18-6.56a15.28,15.28,0,0,0-6-.22c-1.57.34-3.15.71-4.72,1.1q-3.39.89-6.63,1.55a34.89,34.89,0,0,1-7.08.67,33.49,33.49,0,0,1-5.31-.45l-1.62-.14-.45-1.63a1,1,0,0,0-.36-.66l-.67-.66c-.49-.59-1.08-1.38-1.77-2.36a4.26,4.26,0,0,1-.44-3.69,7.39,7.39,0,0,1-1.18-3.39,18.72,18.72,0,0,0-1,2.29c-.24.73-.47,1.45-.66,2.13L589.55,83l-1.92.3a2.27,2.27,0,0,0-.51.88,1.13,1.13,0,0,0-.08.88l.59,1.63L586.16,88a2.61,2.61,0,0,1-.74.74,6.17,6.17,0,0,0-.74.59,21.32,21.32,0,0,1-.81,3.1c-.34,1-.71,2-1.1,3-.5,1.57-1,3.09-1.41,4.57a15.38,15.38,0,0,0-.66,4.42l-.59,1.92a4.79,4.79,0,0,1-1.84,1.77c-.74.39-1.45.74-2.14,1a6.48,6.48,0,0,0-2.06,1.18l-.45,1.92-2.21.29c-1.28.3-2.19.49-2.73.59a10.14,10.14,0,0,1-1.84.15l-1.92-.15c-1.18-1.18-2.14-2.08-2.87-2.73a12.79,12.79,0,0,0-2.58-1.69l-.89-1.18a7.59,7.59,0,0,1-.74-2.14,14.34,14.34,0,0,0-.44-2,5.81,5.81,0,0,0-.88-2.65Zm47-38.34q-2.07,3-4,6.2a13.85,13.85,0,0,1,2-.15,14,14,0,0,0,2-.15c3.44-.19,6.63-.44,9.58-.73s6.14-.79,9.59-1.48q-1.18-5.46-2.58-11.13t-3-11.43l-.74,1.47a104.11,104.11,0,0,0-7.07,8.56,70.41,70.41,0,0,0-5.61,8.7Z"/><path class="cls-1" d="M690.85,98.65a4.75,4.75,0,0,0-1.77,3c-.19,1.23-.44,2.44-.73,3.62a7.07,7.07,0,0,1-1.55,3c-.74.84-2,1.21-3.91,1.11-.39.49-.47.78-.22.88s.47.54.66,1.33a4.4,4.4,0,0,0-3,.29,6.39,6.39,0,0,1-2.21.89,11.68,11.68,0,0,1-5.67-3.76,33.05,33.05,0,0,1-4-6,58.41,58.41,0,0,1-3-6.64,47.32,47.32,0,0,0-2.58-5.9c0-.39.18-.56.52-.52a5.56,5.56,0,0,0,1,.08,13.35,13.35,0,0,1-1.11-3.32,6.32,6.32,0,0,0-1.4-3q4.27-9.15,9.14-19.1t9.81-20.2q4.94-10.24,9.88-20.65t9.51-20.42a69.6,69.6,0,0,1,8,3.47,39.36,39.36,0,0,1,7.15,4.64A27.5,27.5,0,0,1,721,17.62a20.2,20.2,0,0,1,3,7.89c-.2.59-.44.79-.73.59s-.55-.1-.74.3a3.77,3.77,0,0,1,.81,1.25,1.35,1.35,0,0,1-.07.74,2.52,2.52,0,0,0-.15.95,3.13,3.13,0,0,0,.74,1.63c-.5-.1-.84,0-1,.22s-.54.27-1,.07a5.91,5.91,0,0,1,.44,3.25,7.35,7.35,0,0,1-.88,2.13,9.3,9.3,0,0,0-1,2.07,5.11,5.11,0,0,0,.22,3,1.19,1.19,0,0,0-.81.22,2,2,0,0,0-.37.52,1.76,1.76,0,0,1-.37.51c-.14.15-.42.18-.81.08a51.19,51.19,0,0,1,.3,7.74q-.15,3.91-.3,8c-.1,2.71-.1,5.48,0,8.33a47.45,47.45,0,0,0,1.18,8.85,30.4,30.4,0,0,0,10.25-9.58,52,52,0,0,0,6.19-13.13,100.35,100.35,0,0,0,3.54-15.48Q740.7,29.5,742,20.94a11.91,11.91,0,0,0,2.58-4,41.52,41.52,0,0,0,1.63-4.87c.44-1.67.88-3.36,1.32-5.09a19.06,19.06,0,0,1,1.85-4.64,9.75,9.75,0,0,1,4.49,1.55,26.57,26.57,0,0,1,3.47,2.8,36.75,36.75,0,0,0,3.39,2.87,9.9,9.9,0,0,0,4.42,1.77q2.07,3,3.84,5.68a16.35,16.35,0,0,1,2.36,6.12A12.14,12.14,0,0,0,770,26.4c-.29,1.18-.61,2.35-1,3.53a13.57,13.57,0,0,1-1.4,3.25,7.62,7.62,0,0,1-2.51,2.51,65,65,0,0,1-1.32,8.25q-.89,3.84-1.62,7.52t-1.33,7.67a48.33,48.33,0,0,0-.44,8.7q-1.34,4.28-3,8.78a54.58,54.58,0,0,0-2.36,8.33,15.88,15.88,0,0,0-4.43,5.45q-1.62,3.26-3.39,6.49c-.49.4-.79.47-.88.22s-.54-.41-1.33-.51c.1.88-.07,1.45-.52,1.69s-.42,1,.08,2.14a15.57,15.57,0,0,0-4.43,3.1,32.08,32.08,0,0,1-4.2,3.54,12.66,12.66,0,0,1-5.31,2.13q-3,.53-7.89-1.25a73,73,0,0,1-13-12.24,53.69,53.69,0,0,1-9.15-16.37,3.58,3.58,0,0,0-2.21,1.92,28.87,28.87,0,0,0-1.32,3.1c-.4,1.08-.79,2.06-1.18,3a1.91,1.91,0,0,1-1.77,1.32,6.52,6.52,0,0,1-1.11,2.44c-.54.73-1.06,1.47-1.55,2.21a8.36,8.36,0,0,0-1.1,2.43A4.25,4.25,0,0,0,690.85,98.65Z"/><path class="cls-1" d="M767.53,77.56a9.07,9.07,0,0,1,.45-2.94,7.59,7.59,0,0,0,.14-3.4,122.54,122.54,0,0,1,10.4-18.06,68,68,0,0,1,13.94-14.67,11,11,0,0,0,2.13-2.14c.54-.74,1.08-1.45,1.63-2.14a10.34,10.34,0,0,1,1.84-1.84,6,6,0,0,1,2.65-1.11,45.87,45.87,0,0,1,8.85-7.81q5.16-3.54,10.77-6.79T831.61,10a70.25,70.25,0,0,0,10.24-7.38,3.06,3.06,0,0,0,2.58.67,3.11,3.11,0,0,1,2-.08,8,8,0,0,0,3.46,3.91c1.43.74,2.9,1.48,4.43,2.21A24.4,24.4,0,0,1,858.59,12a9.47,9.47,0,0,1,3,4.2c-.68,0-1,.25-1,.74a7.36,7.36,0,0,0,.36,1.62,5.09,5.09,0,0,1,.3,1.62c0,.5-.44.74-1.33.74a.91.91,0,0,0,1,1,.92.92,0,0,1,1,1,2.4,2.4,0,0,1-.37,1.4,2.12,2.12,0,0,0-.08,1.7,71.4,71.4,0,0,1-7.88,4.5c-2.91,1.42-6,2.92-9.15,4.5s-6.44,3.27-9.73,5.08A94.88,94.88,0,0,0,825,46.45q-4.86,3.54-9.8,7.82t-9.51,9.06q-4.58,4.8-8.56,9.88a86.35,86.35,0,0,0-6.78,10,4.89,4.89,0,0,0,.81,1.33,4.69,4.69,0,0,1,.81,1.32,80.59,80.59,0,0,0,10.47-.07,34.32,34.32,0,0,1,9.73.66,1.84,1.84,0,0,0,.74-1.18,1.35,1.35,0,0,1,.89-1,122.94,122.94,0,0,0,18.72-3.32l17.7-4.64q-2.65-1-4.72-1.62c-.59-.59-.57-1.11.07-1.55a7.39,7.39,0,0,0,1.55-1.4,12,12,0,0,1-3.91-3.54,11.62,11.62,0,0,1-1.84-5.75,2.65,2.65,0,0,0,1-2.07,2.27,2.27,0,0,0-1-1.92c-.49-.19-.79-.19-.88,0a2.51,2.51,0,0,0-.22.59,1.57,1.57,0,0,1-.3.59q-.22.3-.81,0a6.44,6.44,0,0,1,.74-2.65,8.49,8.49,0,0,0,.88-2.51l12.24-8.11a42.57,42.57,0,0,0,4.72,3.1c1.87,1.08,3.83,2.16,5.9,3.24S867.86,54.83,870,56s4.18,2.24,6.05,3.32a18.24,18.24,0,0,1,4.57,2.87q1.9,1.71,3.68,3.54t3.54,3.62a15.13,15.13,0,0,0,4.28,3,7.8,7.8,0,0,0,.29,3.83,6.85,6.85,0,0,1,.3,3.54A31.59,31.59,0,0,1,886,88.11a43.49,43.49,0,0,1-8.93,6,64.33,64.33,0,0,1-10.54,4.2q-5.61,1.69-11.5,3.25t-11.87,3.24q-6,1.7-11.73,3.91c-1.67,0-3.09,0-4.27.15s-2.31.24-3.39.44l-3.25.59a34.2,34.2,0,0,1-3.54.44c-.49-.1-.81,0-.95.3a1.87,1.87,0,0,1-.67.73,35.62,35.62,0,0,1-5.31.45h-4a16.19,16.19,0,0,0-4.27.59,12.69,12.69,0,0,1-4.13.44q-13.27-.59-20.8-9.44T768.57,79c.09-.49,0-.81-.3-1A3,3,0,0,1,767.53,77.56Z"/></g></g></svg>